<svg id="visual" 
viewBox="0 0 960 540" width="960" height="540" xmlns="http://www.w3.org/2000/svg" xmlns:xlink="http://www.w3.org/1999/xlink" version="1.1">

<rect x="0" y="0" width="960" height="540" fill="#f7efdc"></rect>

<path d="M0 182L16 182.5C32 183 64 184 96 185.5C128 187 160 189 192 191.7C224 194.3 256 197.7 288 200.3C320 203 352 205 384 202.5C416 200 448 193 
480 192.2C512 191.3 544 196.7 576 196.3C608 196 640 190 672 190.5C704 191 736 198 768 200.3C800 202.7 832 200.3 864 198.7C896 197 928 196 944 
195.5L960 195L960 301L944 301C928 301 896 301 864 301C832 301 800 301 768 301C736 301 704 301 672 301C640 301 608 301 576 301C544 301 512 301 
480 301C448 301 416 301 384 301C352 301 320 301 288 301C256 301 224 301 192 301C160 301 128 301 96 301C64 301 32 301 16 301L0 301Z" 
 fill="#ffbfa0"></path>

<path d="M0 206L16 205.5C32 205 64 204 96 204.2C128 204.3 160 205.7 192 206.3C224 207 256 207 288 209.8C320 212.7 352 218.3 384 221.2C416 
224 448 224 480 221.8C512 219.7 544 215.3 576 212.3C608 209.3 640 207.7 672 207.5C704 207.3 736 208.7 768 210C800 211.3 832 212.7 864 
213.2C896 213.7 928 213.3 944 213.2L960 213L960 301L944 301C928 301 896 301 864 301C832 301 800 301 768 301C736 301 704 301 672 301C640 
301 608 301 576 301C544 301 512 301 480 301C448 301 416 301 384 301C352 301 320 301 288 301C256 301 224 301 192 301C160 301 128 301 96 301C64 
301 32 301 16 301L0 301Z" 
 fill="#db9799"></path>

<path d="M0 243L16 243C32 243 64 243 96 241.8C128 240.7 160 238.3 192 235.7C224 233 256 230 288 230.8C320 231.7 352 236.3 384 238.7C416 241 448 
241 480 239.8C512 238.7 544 236.3 576 233.8C608 231.3 640 228.7 672 228.8C704 229 736 232 768 231.8C800 231.7 832 228.3 864 229C896 229.7 928 
234.3 944 236.7L960 239L960 301L944 301C928 301 896 301 864 301C832 301 800 301 768 301C736 301 704 301 672 301C640 301 608 301 576 301C544 301 
512 301 480 301C448 301 416 301 384 301C352 301 320 301 288 301C256 301 224 301 192 301C160 301 128 301 96 301C64 301 32 301 16 301L0 301Z" 
 fill="#a87790"></path>

<path d="M0 248L16 247.5C32 247 64 246 96 248.2C128 250.3 160 255.7 192 256.3C224 257 256 253 288 253C320 253 352 257 384 256.8C416 256.7 448 
252.3 480 252.2C512 252 544 256 576 255.8C608 255.7 640 251.3 672 250.7C704 250 736 253 768 255.7C800 258.3 832 260.7 864 260.2C896 259.7 928 
256.3 944 254.7L960 253L960 301L944 301C928 301 896 301 864 301C832 301 800 301 768 301C736 301 704 301 672 301C640 301 608 301 576 301C544 301 
512 301 480 301C448 301 416 301 384 301C352 301 320 301 288 301C256 301 224 301 192 301C160 301 128 301 96 301C64 301 32 301 16 301L0 301Z" 
 fill="#3a445d"></path>

<path d="M0 280L16 280.2C32 280.3 64 280.7 96 279.2C128 277.7 160 274.3 192 274C224 273.7 256 276.3 288 276.7C320 277 352 275 384 273.2C416 271.3 
448 269.7 480 268.8C512 268 544 268 576 270C608 272 640 276 672 277.8C704 279.7 736 279.3 768 277.8C800 276.3 832 273.7 864 271.8C896 270 928 269 
944 268.5L960 268L960 301L944 301C928 301 896 301 864 301C832 301 800 301 768 301C736 301 704 301 672 301C640 301 608 301 576 301C544 301 512 301 
480 301C448 301 416 301 384 301C352 301 320 301 288 301C256 301 224 301 192 301C160 301 128 301 96 301C64 301 32 301 16 301L0 301Z" 
 fill="#f7efdc"></path></svg>